# xmcd
#
# Track frame offsets:
#	150
#	10800
#	23177
#	34682
#	44960
#	54315
#	63777
#	73420
#	85495
#	97980
#	108850
#	119167
#	132907
#	146827
#	155952
#	166627
#	180070
#	192570
#	201850
#	211392
#	220107
#	228777
#	240427
#	249870
#	263227
#	274345
#	286697
#	295585
#
# Disc length: 4108 seconds
#
# Revision: 1
# Processed by: cddbd v1.5.2PL0 Copyright (c) Steve Scherf et al.
# Submitted via: audiograbber 1.83.01
#
DISCID=99100a1c
DTITLE=Bonnie Owens - Queen Of The Coast [CD 2)
DYEAR=2007
DGENRE=Country
TTITLE0=Slowely But Surely (m. Merle Haggard)
TTITLE1=Just Between The Two Of Us (m. Merle Haggard)
TTITLE2=So Much For Me, So Much For You (m. Merle Haggard)
TTITLE3=A House Without Love Is Not A Home (m. Merle Haggard)
TTITLE4=I Want To Live Again (m. Merle Haggard)
TTITLE5=Number One Heel (unrel.)
TTITLE6=Puns And Needles (unrel.)
TTITLE7=Lie A Little (unrel.)
TTITLE8=Stranger In My Arms (m. Merle Haggard)
TTITLE9=Souvenirs
TTITLE10=Merry Go Round Of Love
TTITLE11=She Don't Deserve You (unrel.)
TTITLE12=Excuse Me For Living
TTITLE13=I'll Take A Chance (m. Merle Haggard)
TTITLE14=Our Hearts Are Holding Hands (m. Merle Haggard)
TTITLE15=Too Used To Being With You (m. Merle Haggard)
TTITLE16=That Makes Two Of Us (m. Merle Haggard)
TTITLE17=Forever And Ever (m. Merle Haggard)
TTITLE18=Wait A Little Longer, Please Jesus (m. Merle Haggard)
TTITLE19=Living On Your Love
TTITLE20=What's It Gonna Cost Me
TTITLE21=You Don't Even Try
TTITLE22=Someone Else You've Known
TTITLE23=Whatever Happened To Me
TTITLE24=Just For The Children's Sake (unrel.)
TTITLE25=Consider The Children
TTITLE26=I Know He Loves Me
TTITLE27=The Best Part Of Me (unrel.)
EXTD=
EXTT0=
EXTT1=
EXTT2=
EXTT3=
EXTT4=
EXTT5=
EXTT6=
EXTT7=
EXTT8=
EXTT9=
EXTT10=
EXTT11=
EXTT12=
EXTT13=
EXTT14=
EXTT15=
EXTT16=
EXTT17=
EXTT18=
EXTT19=
EXTT20=
EXTT21=
EXTT22=
EXTT23=
EXTT24=
EXTT25=
EXTT26=
EXTT27=
PLAYORDER=
